<?xml version="1.0" encoding="UTF-8"?>
  <svg width="32" height="32" viewBox="0 0 32 32" version="1.1" xmlns="http://www.w3.org/2000/svg" xmlns:xlink="http://www.w3.org/1999/xlink">
    <path pid="0" fill="#435068" d="M.667 20.578C.223 19.156 0 17.6 0 16 0 7.156 7.156 0 16 0s16 7.156 16 16-7.156 16-16 16c-.756.044-1.467-.444-1.733-1.2-.267-.889.222-1.867 1.156-2.133.178-.044.4-.089.578-.089 6.933 0 12.578-5.644 12.578-12.578S22.935 3.422 16.001 3.422C9.068 3.422 3.423 9.066 3.423 16c0 1.2.178 2.4.489 3.511 0 .044.044.089.044.133.267.889-.222 1.867-1.156 2.133-.889.267-1.822-.267-2.133-1.2 0 .044 0 .044 0 0z"/>
  </svg>
  