<?xml version="1.0" encoding="UTF-8"?>
  <svg width="72" height="72" viewBox="0 0 72 72" version="1.1" xmlns="http://www.w3.org/2000/svg" xmlns:xlink="http://www.w3.org/1999/xlink">
    <path pid="0" d="M31.9 38.7c9.6-4.7 11.9 4.4 10.6 8.1-3.9 6.5-11.1 5.5-16.1 9.1 2.4-3.6 1.1-13.8 5.5-17.2zm14.5-.5c-1.2-.7-4.4-3.4-5.3-4.1C43.8 24.4 70.4 0 70.4 0L72 1.5S54.3 34.7 46.4 38.2zm-27.7-6.3c3.2 0 5.8-2.6 5.8-5.9 0-3.2-2.6-5.9-5.8-5.9-3.2 0-5.8 2.6-5.8 5.9 0 3.3 2.6 5.9 5.8 5.9zm-4.6 17.2c3.2 0 5.8-2.6 5.8-5.9 0-3.2-2.6-5.9-5.8-5.9-3.2 0-5.8 2.6-5.8 5.9-.1 3.3 2.5 5.9 5.8 5.9zM32.7 9.2c-3.2 0-5.8 2.6-5.8 5.9 0 3.2 2.6 5.9 5.8 5.9 3.2 0 5.8-2.6 5.8-5.9 0-3.3-2.6-5.9-5.8-5.9zm17.4 31.2c4-2.1 9.5-7.9 10.3-8.4C69 45.3 34.7 90.1 8.2 64 6 61.8-12.6 32 21.2 5.2 28.8-.8 49.8-6.1 44.5 19c-2.5 2.9-5.1 7.6-6.2 10.9-2.5.1-5.3.8-8.7 2.5-8.3 6.4-8.3 19.5-8.3 29.2C30.8 59 42.4 60 49.7 47.7c.7-2 .8-4.6.4-7.3z" fill="#435068"/>
  </svg>
  