<?xml version="1.0" encoding="UTF-8"?>
  <svg width="48" height="48" viewBox="0 0 48 48" version="1.1" xmlns="http://www.w3.org/2000/svg" xmlns:xlink="http://www.w3.org/1999/xlink">
    <rect pid="0" width="48" height="48" rx="3.2" ry="3.2" fill="#21539a"/><path pid="1" d="M23.73 32.57a.57.57 0 01.53 0l7.14 3.76a.57.57 0 00.83-.61l-1.36-8a.57.57 0 01.17-.51l5.78-5.63a.57.57 0 00-.32-1l-8-1.16a.57.57 0 01-.43-.31l-3.57-7.24a.57.57 0 00-1 0l-3.57 7.24a.57.57 0 01-.43.31l-8 1.16a.57.57 0 00-.32 1L17 27.26a.57.57 0 01.17.51l-1.36 8a.57.57 0 00.83.61z" fill="#fff"/>
  </svg>
  