<?xml version="1.0" encoding="UTF-8"?>
<svg width="40px" height="40px" viewBox="0 0 40 40" version="1.1" xmlns="http://www.w3.org/2000/svg" xmlns:xlink="http://www.w3.org/1999/xlink">
    <title>编组 7</title>
    <g id="页面-1" stroke="none" stroke-width="1" fill="none" fill-rule="evenodd">
        <g id="megicon" transform="translate(-158.000000, -1374.000000)">
            <g id="编组-8" transform="translate(158.000000, 1374.000000)">
                <rect id="矩形" x="0" y="0" width="40" height="40"></rect>
                <rect id="矩形备份-6" fill="#2A77D6" opacity="0.2" x="7" y="5" width="29" height="23"></rect>
                <rect id="矩形" fill="#2A77D6" x="3" y="9" width="29" height="21"></rect>
                <polygon id="直线-6" fill-opacity="0.4" fill="#FFFFFF" fill-rule="nonzero" points="32 26 32 27 3 27 3 26"></polygon>
                <path d="M17.5,29 C17.7761424,29 18,28.7761424 18,28.5 C18,28.2238576 17.7761424,28 17.5,28 C17.2238576,28 17,28.2238576 17,28.5 C17,28.7761424 17.2238576,29 17.5,29 Z" id="椭圆形" fill="#FFFFFF"></path>
                <path d="M14.2570186,21.546559 L14.2570186,20.547205 L10.3012422,18.8503851 L14.2570186,17.1535652 L14.2570186,16.1542112 L9,18.4339876 L9,19.2563727 L14.2570186,21.546559 Z M16.5,22.6749984 L19.1330683,15.0978556 L18.175354,15.0978556 L15.5318758,22.6749984 L16.5,22.6749984 Z M20.5029814,21.546559 L25.76,19.2563727 L25.76,18.4339876 L20.5029814,16.1542112 L20.5029814,17.1535652 L24.4587578,18.8503851 L20.5029814,20.547205 L20.5029814,21.546559 Z" id="&lt;/&gt;" fill="#FFFFFF" fill-rule="nonzero"></path>
                <path d="M20.803,34 L21,35 L14,35 L14.216,34 L20.803,34 Z M20.013929,30 L20.605,33 L14.432,33 L15.0794037,30 L20.013929,30 Z" id="形状结合" fill="#2A77D6"></path>
            </g>
        </g>
    </g>
</svg>