<?xml version="1.0" encoding="UTF-8"?>
<svg width="40px" height="40px" viewBox="0 0 40 40" version="1.1" xmlns="http://www.w3.org/2000/svg" xmlns:xlink="http://www.w3.org/1999/xlink">
    <title>自动同步</title>
    <g id="页面-1" stroke="none" stroke-width="1" fill="none" fill-rule="evenodd">
        <g id="megicon" transform="translate(-993.000000, -1374.000000)">
            <g id="编组-5" transform="translate(158.000000, 1374.000000)">
                <g id="编组-8" transform="translate(835.000000, 0.000000)">
                    <rect id="矩形" x="0" y="0" width="40" height="40"></rect>
                    <rect id="矩形备份-3" fill="#2A77D6" opacity="0.2" x="12" y="5" width="23" height="23"></rect>
                    <rect id="矩形" fill="#2A77D6" x="9" y="9" width="22" height="22"></rect>
                    <path d="M24,17 L24,18 L11,18 L11,17 L24,17 Z M24,14 L24,15 L11,15 L11,14 L24,14 Z M24,11 L24,12 L11,12 L11,11 L24,11 Z" id="形状结合" fill="#FFFFFF" opacity="0.4"></path>
                    <path d="M22.251203,19 L24.5024059,21.3998869 L23.7730673,22.0840397 L22.751,20.995 L22.751203,31 L21.751203,31 L21.751,20.993 L20.7293387,22.0840397 L20,21.3998869 L22.251203,19 Z" id="形状结合" fill="#FFFFFF" fill-rule="nonzero"></path>
                    <path d="M28.251203,19 L30.5024059,21.3998869 L29.7730673,22.0840397 L28.751,20.995 L28.751203,31 L27.751203,31 L27.751,20.993 L26.7293387,22.0840397 L26,21.3998869 L28.251203,19 Z" id="形状结合" fill="#FFFFFF" fill-rule="nonzero" transform="translate(28.251203, 25.000000) rotate(180.000000) translate(-28.251203, -25.000000) "></path>
                </g>
            </g>
        </g>
    </g>
</svg>