<?xml version="1.0" encoding="utf-8"?>
<!-- Generator: Adobe Illustrator 23.0.0, SVG Export Plug-In . SVG Version: 6.00 Build 0)  -->
<svg version="1.1" id="图层_1" xmlns="http://www.w3.org/2000/svg" xmlns:xlink="http://www.w3.org/1999/xlink" x="0px" y="0px"
	 viewBox="0 0 20 20" style="enable-background:new 0 0 20 20;" xml:space="preserve">
<style type="text/css">
	.st0{fill-rule:evenodd;clip-rule:evenodd;fill:#D8D8D8;fill-opacity:0;}
	.st1{fill-rule:evenodd;clip-rule:evenodd;fill:#D4E3F7;}
	.st2{fill-rule:evenodd;clip-rule:evenodd;fill:#1067D1;}
	.st3{fill:#FFFFFF;}
	.st4{fill:#76A6E4;}
</style>
<title>编组@3x</title>
<g id="编组" transform="translate(653.000000, 1334.000000)">
	<rect id="矩形" x="-653" y="-1334" class="st0" width="20" height="20"/>
	<rect id="矩形备份" x="-648" y="-1329" class="st1" width="12" height="9"/>
	<rect x="-650" y="-1327" class="st2" width="12" height="9"/>
	<path id="形状结合" class="st3" d="M-641-1323.2l0,0.5l2,0v0.5l-2,0l0,0.5h-1.5l0-0.5h-6.5v-0.5l6.5,0l0-0.5H-641z
		 M-641.5-1322.8h-0.5v0.5h0.5V-1322.8z"/>
	<path id="形状结合备份" class="st3" d="M-646-1321l0,0.5l7,0v0.5h-7l0,0.5h-1.5l0-0.5l-1.5,0v-0.5l1.5,0l0-0.5H-646z
		 M-646.5-1320.5h-0.5v0.5h0.5V-1320.5z"/>
	<polygon id="直线备份-2" class="st4" points="-638,-1325 -638,-1324.4 -650,-1324.4 -650,-1325 	"/>
</g>
</svg>
